<?xml version="1.0" encoding="UTF-8" standalone="no"?>
<svg
   xmlns:dc="http://purl.org/dc/elements/1.1/"
   xmlns:cc="http://creativecommons.org/ns#"
   xmlns:rdf="http://www.w3.org/1999/02/22-rdf-syntax-ns#"
   xmlns:svg="http://www.w3.org/2000/svg"
   xmlns="http://www.w3.org/2000/svg"
   xmlns:sodipodi="http://sodipodi.sourceforge.net/DTD/sodipodi-0.dtd"
   xmlns:inkscape="http://www.inkscape.org/namespaces/inkscape"
   sodipodi:docname="hinku.svg"
   inkscape:version="1.0 (4035a4fb49, 2020-05-01)"
   id="svg8"
   version="1.1"
   viewBox="0 0 115.23652 40"
   height="40mm"
   width="115.23652mm">
  <defs
     id="defs2" />
  <sodipodi:namedview
     fit-margin-bottom="0"
     fit-margin-right="0"
     fit-margin-left="0"
     fit-margin-top="0"
     inkscape:window-maximized="0"
     inkscape:window-y="82"
     inkscape:window-x="50"
     inkscape:window-height="944"
     inkscape:window-width="1190"
     showgrid="false"
     inkscape:document-rotation="0"
     inkscape:current-layer="layer1"
     inkscape:document-units="mm"
     inkscape:cy="97.948867"
     inkscape:cx="388.75554"
     inkscape:zoom="0.49497475"
     inkscape:pageshadow="2"
     inkscape:pageopacity="0.0"
     borderopacity="1.0"
     bordercolor="#666666"
     pagecolor="#ffffff"
     id="base" />
  <metadata
     id="metadata5">
    <rdf:RDF>
      <cc:Work
         rdf:about="">
        <dc:format>image/svg+xml</dc:format>
        <dc:type
           rdf:resource="http://purl.org/dc/dcmitype/StillImage" />
        <dc:title></dc:title>
      </cc:Work>
    </rdf:RDF>
  </metadata>
  <g
     transform="translate(-26.771166,-93.439452)"
     id="layer1"
     inkscape:groupmode="layer"
     inkscape:label="Layer 1">
    <g
       transform="matrix(0.7389428,0,0,0.7389428,6.9888056,24.393042)"
       id="g1022">
      <path
         style="fill:#a1103f;fill-opacity:1;stroke:none;stroke-width:0.264583px;stroke-linecap:butt;stroke-linejoin:miter;stroke-opacity:1"
         d="m 27.14205,114.77231 c 0.15118,-0.0143 0.30337,-0.0204 0.45354,-0.043 0.24376,-0.0366 1.11484,-0.93175 1.25321,-1.16006 0.39475,-0.65131 0.21314,-1.63731 0.53709,-2.39533 0.28706,-0.6717 0.73568,-0.40166 1.22934,-0.76263 0.54652,-0.39963 0.47544,-1.06423 0.83546,-1.56824 0.55384,-0.77531 2.00369,-0.73501 2.84061,-0.88079 0.54653,-0.0952 1.07005,-0.0731 1.6232,-0.10741 0.27528,-0.0171 0.54233,-0.10469 0.811601,-0.11816 0.29028,-0.0145 0.57836,0.0644 0.87128,0.0644 0.829831,0 1.650141,-0.0213 2.482541,0.0322 0.603471,0.0388 1.264061,0.0866 1.861912,0.0752 0.83401,-0.016 1.439241,-0.0667 2.208031,0.27928 0.49936,0.2247 0.892941,0.5839 1.348691,0.89153 0.51544,0.34792 1.090031,0.61258 1.539661,1.03117 0.49451,0.46038 0.85888,1.03178 1.39642,1.47157 0.536131,0.43862 1.207711,0.61807 1.861912,0.75189 0.28087,0.0574 0.70531,0.0437 0.95483,0.20409 1.718281,1.10456 1.390711,2.74804 1.647071,4.56507 0.0551,0.39065 0.13862,0.74691 0.29839,1.10636 0.24225,0.54504 1.742711,2.97836 1.277071,3.52316 -0.582471,0.6815 -1.468011,0.63541 -2.267711,0.83783 -0.714571,0.18087 -1.299711,0.65218 -2.029002,0.79486 -0.73683,0.14416 -1.4752,-0.0447 -2.208021,-0.0322 -0.71376,0.0121 -1.41538,0.13833 -2.124491,0.16113 -0.88323,0.0284 -1.756821,-0.0112 -2.637712,-0.043 -0.69163,-0.0249 -1.31434,0.1297 -1.993201,0.19334 -1.01657,0.0953 -2.029391,0.20296 -3.043491,0.30076 -0.699861,0.0675 -1.379431,0.23785 -2.088682,0.25779 -1.23984,0.0349 -2.39937,-0.21874 -3.60446,-0.45114 -0.88661,-0.17097 -1.81023,-0.20871 -2.54222,-0.77337 -0.0963,-0.0743 -0.11922,-0.20397 -0.21484,-0.27928 -0.45665,-0.3596 -1.19028,-0.62902 -1.49191,-1.14932 -0.2754,-0.47505 -0.27844,-1.03719 -0.47741,-1.53601 -0.37816,-0.94807 -0.93893,-1.46853 -0.9787,-2.57793 -0.0157,-0.43801 0.17924,-0.7062 0.27451,-1.10636 0.0923,-0.38755 0.11712,-1.16802 0.0955,-1.55749 z"
         id="path26"
         inkscape:transform-center-x="5.6608653"
         inkscape:transform-center-y="-3.7880169" />
      <path
         style="fill:#a1103f;fill-opacity:1;stroke:none;stroke-width:0.264583px;stroke-linecap:butt;stroke-linejoin:miter;stroke-opacity:1"
         d="m 50.941069,93.901863 c -0.16442,0.51473 -0.48564,0.92813 -0.751931,1.38564 -0.22047,0.37878 -0.15947,0.85923 -0.39387,1.24599 -0.35585,0.58715 -1.0283,0.93538 -1.300951,1.58972 -0.11772,0.28254 -0.12023,0.70958 -0.19097,1.00969 -0.13434,0.56998 -0.29351,1.108497 -0.39386,1.686387 -0.0846,0.48713 0,1.00328 0,1.49305 0,1.00793 -0.16018,2.14407 0.14323,3.11499 0.16801,0.53764 0.662841,1.06934 1.002561,1.50379 0.25533,0.32653 0.70966,0.76988 1.07418,0.96672 0.113271,0.0612 0.241001,0.0293 0.358071,0.0644 0.43523,0.13057 0.86496,0.33756 1.30094,0.45114 0.576211,0.15011 1.191141,0.21201 1.563521,0.74115 1.172461,1.66602 0.13435,3.93578 2.649642,4.4684 0.4742,0.10042 1.31223,0.27185 1.77836,0.0537 1.59708,-0.74742 2.79637,-1.94628 4.05801,-3.14722 1.32412,-1.26041 2.31573,-2.29558 2.90027,-4.07097 0.33314,-1.01184 0.31191,-3.39524 0.34613,-4.56507 0.0351,-1.20008 0.0204,-3.467487 -0.66838,-4.500627 -0.4447,-0.66704 -2.46144,-0.66947 -3.23446,-0.9345 -0.27732,-0.0951 -0.66604,-0.23105 -0.91902,-0.37594 -0.7652,-0.43825 -1.26381,-1.28125 -2.10062,-1.63269 -0.50812,-0.2134 -1.10625,-0.20435 -1.64707,-0.24705 -1.197541,-0.0945 -2.454681,-0.2433 -3.628342,-0.48336 -0.24605,-0.0503 -1.861941,-0.49389 -1.909641,-0.15038 -0.0153,0.11057 -0.0239,0.22199 -0.0358,0.33298 z"
         id="path28"
         inkscape:transform-center-x="-10.153149"
         inkscape:transform-center-y="-16.147789" />
      <path
         style="fill:#a1103f;fill-opacity:1;stroke:none;stroke-width:0.264583px;stroke-linecap:butt;stroke-linejoin:miter;stroke-opacity:1"
         d="m 56.323882,121.5501 c -0.61626,1.13811 -2.294681,1.20533 -3.222532,1.90122 -0.19976,0.14981 -0.36776,0.41527 -0.53709,0.60151 -0.0962,0.10586 -0.24091,0.1568 -0.34612,0.2578 -0.17378,0.16683 -0.25605,0.44981 -0.40581,0.64448 -0.404831,0.52624 -1.360811,0.95668 -1.993182,1.06339 -0.45294,0.0764 -0.94202,0.0169 -1.384511,0.10741 -1.07631,0.22014 -2.282931,0.29065 -3.318011,0.69819 -0.368301,0.14502 -0.992121,0.18795 -1.265141,0.51559 -0.37994,0.45595 0.20431,1.76636 -0.19096,2.68534 -0.331171,0.76993 -1.223351,1.10093 -1.503851,1.85825 -0.14238,0.38442 -0.031,0.85538 -0.10742,1.25673 -0.18109,0.95073 -0.545391,1.88298 -0.417741,2.87869 0.134101,1.046 0.776461,2.17725 1.098051,3.19018 0.15548,0.48974 0.36926,1.70908 0.59677,2.07308 0.577351,0.92373 2.029502,1.39382 2.864472,2.00863 0.614251,0.45229 1.028781,1.05687 1.479981,1.64343 0.48121,0.62557 1.032321,1.211 1.503841,1.84751 0.16979,0.2292 0.15202,0.59868 0.35807,0.78412 0.0376,0.0338 0.37482,-0.10771 0.4058,-0.1289 0.538111,-0.36805 0.891851,-1.07436 1.289011,-1.57898 0.41208,-0.52356 1.287231,-1.26659 1.456101,-1.96566 0.0516,-0.21371 0.15158,-0.46257 0.17904,-0.67671 0.0572,-0.44628 0.002,-0.77144 0.29838,-1.14932 0.60002,-0.76496 1.442981,-1.32914 2.052871,-2.08382 0.27118,-0.33557 0.410181,-0.77031 0.620641,-1.13859 0.28215,-0.49376 0.75976,-0.97023 1.20546,-1.32118 0.27523,-0.21672 0.51667,-0.47201 0.8116,-0.66597 0.6007,-0.39504 1.30216,-0.62772 1.82611,-1.13858 0.22427,-0.21868 0.23055,-0.78433 0.29838,-1.06339 0.54713,-2.25096 -0.72152,-4.10331 -1.67095,-6.0259 -0.10322,-0.20902 -0.2045,-0.36159 -0.33419,-0.55855 -0.44259,-0.67218 -0.14986,-2.56544 -0.17902,-3.40501 -0.0165,-0.47388 -0.16022,-0.9293 -0.21484,-1.39638 -0.0559,-0.47842 0.20673,-1.15304 -0.13129,-1.57898 -0.036,-0.0453 -0.1163,-0.013 -0.15515,-0.043 -0.30877,-0.23817 -0.56439,-0.1484 -0.96677,-0.0967 z"
         id="path30"
         inkscape:transform-center-x="-4.5286651"
         inkscape:transform-center-y="14.771601" />
      <path
         style="fill:#a1103f;fill-opacity:1;stroke:none;stroke-width:0.264583px;stroke-linecap:butt;stroke-linejoin:miter;stroke-opacity:1"
         d="m 62.434762,112.47366 c 0.88589,-0.66301 1.76916,-1.31004 2.6377,-1.99789 0.1605,-0.12712 0.39962,-0.25458 0.52516,-0.41892 0.13493,-0.17663 0.23409,-0.3899 0.37,-0.56929 0.59328,-0.78309 0.97391,-1.56452 1.76642,-2.18049 0.88277,-0.68613 1.95754,-1.00985 2.80479,-1.77233 0.4109,-0.36977 0.88707,-0.69112 1.28902,-1.07413 0.52591,-0.50114 1.0347,-1.19927 1.73062,-1.47156 0.37417,-0.14641 0.79748,-0.14184 1.18159,-0.24706 0.27671,-0.0758 0.80555,-0.26989 1.0503,-0.21482 0.47704,0.10733 0.78719,0.44506 1.20546,0.6767 0.63949,0.35416 1.27319,0.70806 1.95739,0.97746 0.58331,0.22968 1.21509,-0.0636 1.82611,0.0108 0.74099,0.0901 0.92832,1.38608 1.07417,1.95492 0.42438,1.65509 1.40296,1.60631 2.43481,2.53496 0.61125,0.55013 0.51362,1.42931 0.8832,2.09456 0.2949,0.53084 1.04852,0.85778 0.45354,1.53602 -0.4099,0.46726 -1.50173,0.49316 -2.0648,0.55855 -1.2774,0.14834 -2.60908,0.27499 -3.83124,0.68744 -1.71096,0.57742 -3.17706,1.99441 -4.59507,3.05055 -0.31885,0.23747 -0.6891,0.40596 -1.01451,0.63374 -0.55484,0.38837 -1.31072,0.5571 -1.95738,0.69819 -1.97065,0.42996 -3.25389,0.33243 -5.13218,-0.34373 -0.26871,-0.0967 -0.57904,-0.36967 -0.88322,-0.4941 -0.49688,-0.20326 -0.92602,-0.32817 -1.36063,-0.66596 -0.60967,-0.47387 -3.50106,-1.92637 -3.30608,-2.80349 0.085,-0.38252 0.60508,-0.51064 0.77579,-0.79487 0.0698,-0.11622 0.11936,-0.24347 0.17904,-0.3652 z"
         id="path32"
         inkscape:transform-center-x="-27.331134"
         inkscape:transform-center-y="-9.3996432" />
      <path
         style="fill:#a1103f;fill-opacity:1;stroke:none;stroke-width:0.264583px;stroke-linecap:butt;stroke-linejoin:miter;stroke-opacity:1"
         d="m 60.381892,122.86054 c -0.15195,1.11351 -0.10986,2.25133 -0.17903,3.37279 -0.0222,0.35973 -0.13842,0.71261 -0.15516,1.07413 -0.0292,0.62964 0.0302,1.2878 -0.0597,1.91196 -0.12611,0.87555 -0.59211,1.97082 -0.2029,2.84646 0.29506,0.66384 3.03945,1.46908 3.72382,1.89048 0.42278,0.26032 0.75657,0.66069 1.1816,0.90227 0.84446,0.47998 1.61335,1.06836 2.44673,1.5575 0.76833,0.45096 1.58854,0.88174 2.38706,1.28896 0.97893,0.49923 2.0596,0.70704 3.07931,1.07413 1.55672,0.56041 3.93289,1.26553 5.5499,0.7519 1.02686,-0.32617 1.75029,-1.64897 2.45868,-2.40606 0.36984,-0.39526 0.81091,-0.73736 1.26514,-1.03117 1.47611,-0.95481 2.78738,-1.44924 3.18673,-3.2976 0.0897,-0.41515 0.18486,-0.86092 0.15515,-1.28896 -0.12916,-1.86128 -1.38156,-3.55842 -2.78091,-4.67249 -0.53991,-0.42983 -1.30579,-0.58695 -1.90966,-0.91301 -1.20425,-0.65027 -2.42897,-1.26667 -3.71187,-1.75084 -0.79812,-0.30121 -1.66218,-0.54387 -2.4348,-0.89153 -0.67463,-0.30358 -1.9561,-1.40492 -2.45867,-1.94419 -0.32807,-0.35201 -0.8173,-1.00065 -1.31289,-1.14932 -0.66939,-0.20081 -1.90721,-0.20022 -2.60189,-0.0752 -0.10685,0.0192 -0.19601,0.0855 -0.31032,0.0752 -0.60764,-0.0547 -0.8499,-0.90525 -1.5874,-0.98821 -0.25542,-0.0287 -0.5332,0.0131 -0.77579,0.0859 -0.33312,0.0999 -0.68436,0.12411 -1.01451,0.24706 -0.74798,0.27854 -1.24146,0.82724 -1.81416,1.34267 -0.78586,0.70727 -1.59393,1.03217 -2.12448,1.98714 z"
         id="path34"
         inkscape:transform-center-x="-26.100979"
         inkscape:transform-center-y="9.6902673" />
      <path
         style="fill:#ce8473;fill-opacity:1;stroke:none;stroke-width:0.264583px;stroke-linecap:butt;stroke-linejoin:miter;stroke-opacity:1"
         d="m 53.65355,113.18741 c 0.737101,2.15902 -2.440081,2.74084 -2.542221,4.02801 -0.0668,0.84193 0.835181,0.99091 1.217401,1.48231 0.12586,0.1618 0.39778,0.45451 0.45354,0.65521 0.16378,0.58955 -0.069,0.73197 0.41774,1.21378 0.22061,0.21839 0.61851,0.20219 0.835471,0.39743 0.74361,0.66917 0.97288,0.44446 1.909651,0.65522 0.4516,0.1016 0.98391,0.41593 1.33675,0.69819 0.47921,0.38335 1.12952,0.89087 1.52772,1.33193 0.77549,0.85896 1.5337,1.88883 2.8406,1.70787 1.19576,-0.16557 0.87802,-1.52665 1.31289,-2.30939 0.28989,-0.5218 0.71945,-0.93822 1.31288,-1.05266 0.17473,-0.0337 0.55501,0.0397 0.68031,-0.11815 0.76886,-0.96865 0.0486,-1.54171 -0.13128,-2.51347 -0.0927,-0.50081 0.24387,-1.01085 0.39386,-1.46083 0.1928,-0.5784 -0.13749,-1.47738 -0.4058,-1.98715 -0.26683,-0.50695 -0.73012,-0.94272 -1.26514,-1.1708 -0.20143,-0.0859 -0.44236,-0.11663 -0.63258,-0.22557 -0.34432,-0.1972 -0.6231,-0.49414 -0.99063,-0.64448 -1.02748,-0.42032 -2.37294,-0.71615 -3.4851,-0.7519 -0.98295,-0.0316 -1.93816,0.0417 -2.92415,-0.0322 -0.278351,-0.0209 -0.669081,-0.13531 -0.930961,-0.23631 -0.55167,-0.21277 -0.789741,-0.5058 -0.930951,0.33298 z"
         id="path877"
         inkscape:transform-center-x="-11.877945"
         inkscape:transform-center-y="-0.75628847" />
    </g>
    <g
       transform="matrix(0.7389428,0,0,0.7389428,43.745071,25.957138)"
       id="g1014">
      <path
         id="rect957"
         style="fill:#808080;fill-opacity:1;stroke:none;stroke-width:0.167463"
         d="m 48.372849,101.38608 9.103557,-0.63517 -0.706437,32.83069 -6.277807,-0.63516 z"
         sodipodi:nodetypes="ccccc" />
      <path
         id="rect963"
         style="fill:#666666;fill-opacity:1;stroke:none;stroke-width:0.167463"
         d="m 53.342968,114.88124 14.410144,-0.31758 v 5.28289 L 53.342968,118.8938 Z"
         sodipodi:nodetypes="ccccc" />
      <path
         id="rect968"
         style="fill:#666666;fill-opacity:1;stroke:none;stroke-width:0.167463"
         d="m 63.48756,103.83077 h 7.5769 l -0.706435,26.09969 -4.751152,0.95275 z"
         sodipodi:nodetypes="ccccc" />
      <path
         id="rect975"
         style="fill:#666666;fill-opacity:1;stroke:none;stroke-width:0.167463"
         d="m 74.05183,111.99953 5.71639,0.95274 -1.059656,16.12199 -4.656734,0.95274 z"
         sodipodi:nodetypes="ccccc" />
      <path
         id="rect979"
         style="fill:#666666;fill-opacity:1;stroke:none;stroke-width:0.167463"
         d="m 74.951493,105.64143 h 4.8326 l -0.706435,4.25016 -3.772951,0.63517 z"
         sodipodi:nodetypes="ccccc" />
      <path
         id="rect988"
         style="fill:#666666;fill-opacity:1;stroke:none;stroke-width:0.167463"
         d="m 82.861556,113.22155 5.698732,-0.63516 0.353221,16.60062 h -3.932643 z"
         sodipodi:nodetypes="ccccc" />
      <path
         style="fill:#808080;fill-opacity:1;stroke:none;stroke-width:0.167463px;stroke-linecap:butt;stroke-linejoin:miter;stroke-opacity:1"
         d="m 86.191243,117.24986 8.704702,-5.72988 5.919575,4.59941 1.37455,11.48702 -7.052998,1.05754 1.510326,-10.15438 z"
         id="path990"
         sodipodi:nodetypes="ccccccc" />
      <path
         style="fill:#808080;fill-opacity:1;stroke:none;stroke-width:0.167463px;stroke-linecap:butt;stroke-linejoin:miter;stroke-opacity:1"
         d="m 105.88507,127.36836 -2.00549,-25.16206 6.12914,0.14587 -1.12669,23.77631 z"
         id="path995" />
      <path
         style="fill:#666666;fill-opacity:1;stroke:none;stroke-width:0.197769px;stroke-linecap:butt;stroke-linejoin:miter;stroke-opacity:1"
         d="m 106.71881,118.79611 0.68788,2.20417 9.96156,-6.20769 -3.49037,-2.33913 z"
         id="path997" />
      <path
         style="fill:#666666;fill-opacity:1;stroke:none;stroke-width:0.197769px;stroke-linecap:butt;stroke-linejoin:miter;stroke-opacity:1"
         d="m 115.12626,126.80313 2.90438,-1.37199 -5.40114,-8.54682 -1.09551,0.7647 z"
         id="path999" />
      <path
         style="fill:#666666;fill-opacity:1;stroke:none;stroke-width:0.208165px;stroke-linecap:butt;stroke-linejoin:miter;stroke-opacity:1"
         d="m 118.78113,114.15742 3.90124,-1.03107 1.97771,10.63876 4.76817,-2.3902 0.18964,-7.00659 3.3594,0.79673 -1.54425,9.65456 -2.14025,0.84361 0.21673,-1.92154 -2.35698,2.20274 -5.28293,-0.46867 z"
         id="path1001" />
    </g>
  </g>
</svg>
